<svg xmlns="http://www.w3.org/2000/svg" viewBox="-2 -2 28 28" data-name="apps">
  <rect class="ins-dot" x="7.05" y="7.05" width="2.1" height="2.1" rx="0.5"/>
  <rect class="ins-dot" x="9.65" y="7.05" width="2.1" height="2.1" rx="0.5"/>
  <rect class="ins-dot" x="12.25" y="7.05" width="2.1" height="2.1" rx="0.5"/>
  <rect class="ins-dot" x="14.85" y="7.05" width="2.1" height="2.1" rx="0.5"/>
  <rect class="ins-dot" x="7.05" y="9.65" width="2.1" height="2.1" rx="0.5"/>
  <rect class="ins-dot" x="9.65" y="9.65" width="2.1" height="2.1" rx="0.5"/>
  <rect class="ins-dot" x="12.25" y="9.65" width="2.1" height="2.1" rx="0.5"/>
  <rect class="ins-dot" x="14.85" y="9.65" width="2.1" height="2.1" rx="0.5"/>
  <rect class="ins-dot" x="7.05" y="12.25" width="2.1" height="2.1" rx="0.5"/>
  <rect class="ins-dot" x="9.65" y="12.25" width="2.1" height="2.1" rx="0.5"/>
  <rect class="ins-dot" x="12.25" y="12.25" width="2.1" height="2.1" rx="0.5"/>
  <rect class="ins-dot" x="14.85" y="12.25" width="2.1" height="2.1" rx="0.5"/>
  <rect class="ins-dot" x="7.05" y="14.85" width="2.1" height="2.1" rx="0.5"/>
  <rect class="ins-dot" x="9.65" y="14.85" width="2.1" height="2.1" rx="0.5"/>
  <rect class="ins-dot" x="12.25" y="14.85" width="2.1" height="2.1" rx="0.5"/>
  <rect class="ins-dot" x="14.85" y="14.85" width="2.1" height="2.1" rx="0.5"/>
</svg>
