<svg xmlns="http://www.w3.org/2000/svg" viewBox="-2 -2 28 28" data-name="device-remodeling">
  <rect class="ins" x="5.5" y="6" width="7" height="10.5" rx="1.5"/>
  <circle class="ins-dot" cx="9" cy="14.8" r="0.5"/>
  <g transform="translate(8.33 7.83) scale(0.556)">
    <path class="ins" d="M 17.39 10.93 L 17.39 13.07 L 15.43 12.68 L 14.91 13.94 L 16.57 15.06 L 15.06 16.57 L 13.94 14.91 L 12.68 15.43 L 13.07 17.39 L 10.93 17.39 L 11.32 15.43 L 10.06 14.91 L 8.94 16.57 L 7.43 15.06 L 9.09 13.94 L 8.57 12.68 L 6.61 13.07 L 6.61 10.93 L 8.57 11.32 L 9.09 10.06 L 7.43 8.94 L 8.94 7.43 L 10.06 9.09 L 11.32 8.57 L 10.93 6.61 L 13.07 6.61 L 12.68 8.57 L 13.94 9.09 L 15.06 7.43 L 16.57 8.94 L 14.91 10.06 L 15.43 11.32 Z"/>
    <circle class="ins" cx="12" cy="12" r="1.8"/>
  </g>
</svg>
