<svg xmlns="http://www.w3.org/2000/svg" viewBox="-2 -2 28 28" data-name="love">
  <circle class="ins" cx="12" cy="12" r="5.2"/>
  <path class="ins-dot" d="M 9.9 11.2 C 9.9 11.2 8.6 10.5 8.6 9.6 C 8.6 9.05 9.05 8.85 9.4 8.85 C 9.75 8.85 9.9 9.25 9.9 9.25 C 9.9 9.25 10.05 8.85 10.4 8.85 C 10.75 8.85 11.2 9.05 11.2 9.6 C 11.2 10.5 9.9 11.2 9.9 11.2 Z"/>
  <path class="ins-dot" d="M 14.1 11.2 C 14.1 11.2 12.8 10.5 12.8 9.6 C 12.8 9.05 13.25 8.85 13.6 8.85 C 13.95 8.85 14.1 9.25 14.1 9.25 C 14.1 9.25 14.25 8.85 14.6 8.85 C 14.95 8.85 15.4 9.05 15.4 9.6 C 15.4 10.5 14.1 11.2 14.1 11.2 Z"/>
  <path class="ins" d="M 9.6 13.6 Q 12 16 14.4 13.6"/>
</svg>
