<svg xmlns="http://www.w3.org/2000/svg" viewBox="-2 -2 28 28" data-name="ChatGPT">
  <g transform="translate(6,6) scale(0.5)"><path class="ins" style="stroke-width:calc(var(--stroke-w)*1.4)" transform="rotate(0 12 12)" d="M12.783 4.616a3.501 3.501 0 0 0 -6.783 1.217v5.167l5.66 4.15"/><path class="ins" style="stroke-width:calc(var(--stroke-w)*1.4)" transform="rotate(60 12 12)" d="M12.783 4.616a3.501 3.501 0 0 0 -6.783 1.217v5.167l5.66 4.15"/><path class="ins" style="stroke-width:calc(var(--stroke-w)*1.4)" transform="rotate(120 12 12)" d="M12.783 4.616a3.501 3.501 0 0 0 -6.783 1.217v5.167l5.66 4.15"/><path class="ins" style="stroke-width:calc(var(--stroke-w)*1.4)" transform="rotate(180 12 12)" d="M12.783 4.616a3.501 3.501 0 0 0 -6.783 1.217v5.167l5.66 4.15"/><path class="ins" style="stroke-width:calc(var(--stroke-w)*1.4)" transform="rotate(240 12 12)" d="M12.783 4.616a3.501 3.501 0 0 0 -6.783 1.217v5.167l5.66 4.15"/><path class="ins" style="stroke-width:calc(var(--stroke-w)*1.4)" transform="rotate(300 12 12)" d="M12.783 4.616a3.501 3.501 0 0 0 -6.783 1.217v5.167l5.66 4.15"/></g>
</svg>
