<svg xmlns="http://www.w3.org/2000/svg" viewBox="-2 -2 28 28" data-name="One The Lab ver2">
  <g transform="translate(6,6) scale(0.5)">
    <g transform="translate(0,6.062) scale(0.40276) translate(-268.052,-406.287)">
      <!-- fill eroded by half line-width (w/2) toward fill side; gap = ver1.5 black seam -->
      <!-- D + play face (hole grown) -->
      <path class="ins-dot" fill-rule="evenodd" d="M284.609,412.015 276.566,407.371 268.991,411.744 268.991,430.320 276.567,434.693 292.654,425.406 292.654,416.659 Z M275.626,427.571 275.628,414.494 286.952,421.032 Z"/>
      <!-- top face -->
      <polygon class="ins-dot" points="294.527,415.577 286.953,411.203 293.590,407.371 308.740,416.118 301.166,420.491 301.166,430.320 294.527,434.152"/>
      <!-- small top triangle -->
      <polygon class="ins-dot" points="309.678,407.912 303.979,411.202 309.678,414.494"/>
      <!-- right face -->
      <polygon class="ins-dot" points="309.678,417.742 303.041,421.573 303.041,430.320 310.615,434.692 325.766,425.947 319.128,422.114 309.678,427.571"/>
    </g>
  </g>
</svg>
